<svg xmlns="http://www.w3.org/2000/svg" xmlns:xlink="http://www.w3.org/1999/xlink" version="1.1" x="0px" y="0px" viewBox="0 0 100 125" style="enable-background:new 0 0 100 100;" xml:space="preserve"><g><path d="M14.99,43.88c-0.07,0-0.12,0.06-0.12,0.12v36.35c0,0.07,0.06,0.12,0.12,0.12h11.03c0.07,0,0.12-0.06,0.12-0.12V44.01   c0-0.07-0.06-0.12-0.12-0.12H14.99z M16.86,76.68V47.69c0-0.23,0.19-0.42,0.42-0.42h0.65c0.23,0,0.42,0.19,0.42,0.42v28.99   c0,0.23-0.19,0.42-0.42,0.42h-0.65C17.05,77.1,16.86,76.91,16.86,76.68z M19.77,76.68V47.69c0-0.23,0.19-0.42,0.42-0.42h0.65   c0.23,0,0.42,0.19,0.42,0.42v28.99c0,0.23-0.19,0.42-0.42,0.42h-0.65C19.95,77.1,19.77,76.91,19.77,76.68z M22.73,76.68V47.69   c0-0.23,0.19-0.42,0.42-0.42h0.65c0.23,0,0.42,0.19,0.42,0.42v28.99c0,0.23-0.19,0.42-0.42,0.42h-0.65   C22.92,77.1,22.73,76.91,22.73,76.68z"/><path d="M26.88,42.42v-0.15c0-0.41-0.3-0.74-0.67-0.74H14.8c-0.37,0-0.67,0.33-0.67,0.74v0.15c0,0.41,0.3,0.74,0.67,0.74h11.41   C26.58,43.16,26.88,42.83,26.88,42.42z"/><path d="M27.8,38.29H13.22c-0.37,0-0.67,0.3-0.67,0.67v1.35c0,0.37,0.3,0.66,0.67,0.66H27.8c0.37,0,0.67-0.3,0.67-0.66v-1.35   C28.46,38.59,28.16,38.29,27.8,38.29z"/><path d="M14.14,82.24c0,0.41,0.3,0.74,0.67,0.74h11.41c0.37,0,0.67-0.33,0.67-0.74v-0.15c0-0.41-0.3-0.74-0.67-0.74H14.8   c-0.37,0-0.67,0.33-0.67,0.74V82.24z"/><path d="M27.8,83.54H13.22c-0.37,0-0.67,0.3-0.67,0.67v1.35c0,0.37,0.3,0.67,0.67,0.67H27.8c0.37,0,0.67-0.3,0.67-0.67v-1.35   C28.46,83.84,28.16,83.54,27.8,83.54z"/><path d="M43.64,37.1c-0.07,0-0.12,0.06-0.12,0.12v42.45c0,0.07,0.06,0.12,0.12,0.12h12.89c0.07,0,0.12-0.06,0.12-0.12V37.22   c0-0.07-0.06-0.12-0.12-0.12H43.64z M45.8,75.37V41.52c0-0.28,0.23-0.51,0.51-0.51h0.76c0.28,0,0.51,0.23,0.51,0.51v33.86   c0,0.28-0.23,0.51-0.51,0.51h-0.76C46.03,75.88,45.8,75.65,45.8,75.37z M49.19,75.37V41.52c0-0.28,0.23-0.51,0.51-0.51h0.76   c0.28,0,0.51,0.23,0.51,0.51v33.86c0,0.28-0.23,0.51-0.51,0.51H49.7C49.42,75.88,49.19,75.65,49.19,75.37z M52.66,75.37V41.52   c0-0.28,0.23-0.51,0.51-0.51h0.76c0.28,0,0.51,0.23,0.51,0.51v33.86c0,0.28-0.23,0.51-0.51,0.51h-0.76   C52.89,75.88,52.66,75.65,52.66,75.37z"/><path d="M57.5,35.37v-0.18c0-0.47-0.34-0.84-0.76-0.84H43.42c-0.42,0-0.76,0.38-0.76,0.84v0.18c0,0.47,0.34,0.84,0.76,0.84h13.33   C57.16,36.21,57.5,35.83,57.5,35.37z"/><path d="M58.59,30.31H41.57c-0.42,0-0.76,0.34-0.76,0.76v1.58c0,0.42,0.34,0.76,0.76,0.76h17.02c0.42,0,0.76-0.34,0.76-0.76v-1.58   C59.35,30.65,59.01,30.31,58.59,30.31z"/><path d="M42.66,81.87c0,0.47,0.34,0.84,0.76,0.84h13.33c0.42,0,0.76-0.38,0.76-0.84v-0.18c0-0.47-0.34-0.84-0.76-0.84H43.42   c-0.42,0-0.76,0.38-0.76,0.84V81.87z"/><path d="M58.59,83.66H41.57c-0.42,0-0.76,0.34-0.76,0.76v1.58c0,0.42,0.34,0.76,0.76,0.76h17.02c0.42,0,0.76-0.34,0.76-0.76v-1.58   C59.35,84,59.01,83.66,58.59,83.66z"/><path d="M74.14,43.88c-0.07,0-0.12,0.06-0.12,0.12v36.35c0,0.07,0.06,0.12,0.12,0.12h11.04c0.07,0,0.12-0.06,0.12-0.12V44.01   c0-0.07-0.06-0.12-0.12-0.12H74.14z M76.01,76.68V47.69c0-0.23,0.19-0.42,0.42-0.42h0.65c0.23,0,0.42,0.19,0.42,0.42v28.99   c0,0.23-0.19,0.42-0.42,0.42h-0.65C76.19,77.1,76.01,76.91,76.01,76.68z M78.91,76.68V47.69c0-0.23,0.19-0.42,0.42-0.42h0.65   c0.23,0,0.42,0.19,0.42,0.42v28.99c0,0.23-0.19,0.42-0.42,0.42h-0.65C79.1,77.1,78.91,76.91,78.91,76.68z M81.88,76.68V47.69   c0-0.23,0.19-0.42,0.42-0.42h0.65c0.23,0,0.42,0.19,0.42,0.42v28.99c0,0.23-0.19,0.42-0.42,0.42H82.3   C82.07,77.1,81.88,76.91,81.88,76.68z"/><path d="M86.03,42.42v-0.15c0-0.41-0.3-0.74-0.67-0.74H73.95c-0.37,0-0.67,0.33-0.67,0.74v0.15c0,0.41,0.3,0.74,0.67,0.74h11.41   C85.73,43.16,86.03,42.83,86.03,42.42z"/><path d="M86.94,38.29H72.37c-0.37,0-0.67,0.3-0.67,0.67v1.35c0,0.37,0.3,0.66,0.67,0.66h14.58c0.37,0,0.67-0.3,0.67-0.66v-1.35   C87.61,38.59,87.31,38.29,86.94,38.29z"/><path d="M73.28,82.24c0,0.41,0.3,0.74,0.67,0.74h11.41c0.37,0,0.67-0.33,0.67-0.74v-0.15c0-0.41-0.3-0.74-0.67-0.74H73.95   c-0.37,0-0.67,0.33-0.67,0.74V82.24z"/><path d="M86.94,83.54H72.37c-0.37,0-0.67,0.3-0.67,0.67v1.35c0,0.37,0.3,0.67,0.67,0.67h14.58c0.37,0,0.67-0.3,0.67-0.67v-1.35   C87.61,83.84,87.31,83.54,86.94,83.54z"/><path d="M94.99,34.31L50.05,13.26c-0.03-0.02-0.07-0.02-0.11,0L5.01,34.31c-0.05,0.02-0.08,0.08-0.07,0.14   c0.01,0.06,0.06,0.1,0.12,0.1h10.97c0.01,0,0.03,0,0.04-0.01l33.9-12.23l33.96,12.23c0.01,0,0.03,0.01,0.04,0.01h10.97   c0.06,0,0.11-0.04,0.12-0.1C95.07,34.39,95.04,34.33,94.99,34.31z"/></g><text x="0" y="115" fill="#000000" font-size="5px" font-weight="bold" font-family="'Helvetica Neue', Helvetica, Arial-Unicode, Arial, Sans-serif">Created by konte91</text><text x="0" y="120" fill="#000000" font-size="5px" font-weight="bold" font-family="'Helvetica Neue', Helvetica, Arial-Unicode, Arial, Sans-serif">from the Noun Project</text></svg>